<?xml version="1.0" standalone="no"?><!DOCTYPE svg PUBLIC "-//W3C//DTD SVG 1.1//EN" "http://www.w3.org/Graphics/SVG/1.1/DTD/svg11.dtd"><svg height="255" node-id="1" sillyvg="true" template-height="255" template-width="256" version="1.1" viewBox="0 0 256 255" width="256" xmlns="http://www.w3.org/2000/svg" xmlns:xlink="http://www.w3.org/1999/xlink"><defs node-id="305"></defs><g node-id="783"><g node-id="785"><g node-id="838"><path d="M 252.23 115.05 C 252.23 72.37 219.14 37.77 178.32 37.77 C 177.68 37.77 177.06 37.80 176.42 37.82 C 163.54 15.18 139.91 0.00 112.87 0.00 C 72.05 0.00 38.96 34.60 38.96 77.28 C 38.96 77.83 38.99 78.38 39.00 78.93 C 16.68 92.23 1.61 117.32 1.61 146.10 C 1.61 188.78 34.70 223.37 75.52 223.37 C 77.84 223.37 80.14 223.25 82.41 223.03 C 95.97 240.20 117.48 251.15 140.44 251.15 C 178.17 251.15 208.27 221.58 212.77 183.41 C 236.23 170.47 252.23 144.72 252.23 115.05 Z" fill="#b796ba" fill-opacity="0.22" fill-rule="nonzero" group-id="1,3,56" node-id="311" stroke="none" target-height="251.147" target-width="250.619" target-x="1.61" target-y="0"></path></g></g><g node-id="786"><g node-id="839"><path d="M 10.36 4.39 L 65.17 4.39 L 65.17 47.05 L 10.36 47.05 Z" fill="#ffffff" fill-opacity="0.43" fill-rule="nonzero" group-id="1,4,57" node-id="318" stroke="none" target-height="42.663002" target-width="54.812996" target-x="10.357" target-y="4.391"></path><path d="M 65.17 48.55 L 10.36 48.55 C 9.53 48.55 8.86 47.88 8.86 47.05 L 8.86 4.39 C 8.86 3.56 9.53 2.89 10.36 2.89 L 65.17 2.89 C 66.00 2.89 66.67 3.56 66.67 4.39 L 66.67 47.05 C 66.67 47.88 66.00 48.55 65.17 48.55 Z M 11.86 45.55 L 63.67 45.55 L 63.67 5.89 L 11.86 5.89 L 11.86 45.55 Z" fill="#ccccde" fill-opacity="0.43" fill-rule="nonzero" group-id="1,4,57" node-id="320" stroke="none" target-height="45.663002" target-width="57.812996" target-x="8.857" target-y="2.891"></path></g><g node-id="840"><path d="M 15.43 9.05 L 59.52 9.05 L 59.52 42.09 L 15.43 42.09 Z" fill="#d6f1ff" fill-opacity="0.43" fill-rule="nonzero" group-id="1,4,58" node-id="324" stroke="none" target-height="33.038" target-width="44.09" target-x="15.431" target-y="9.048"></path></g><g node-id="841"><g node-id="856"><path d="M 15.43 22.55 C 15.43 22.55 17.15 20.14 21.46 20.14 C 25.77 20.14 22.84 17.21 28.00 17.21 C 33.17 17.21 36.44 14.63 42.65 17.04 C 48.84 19.45 59.52 19.57 59.52 19.57 L 59.66 28.23 L 15.43 30.65 L 15.43 22.55 L 15.43 22.55 Z" fill="#000000" fill-opacity="0.016168" fill-rule="nonzero" group-id="1,4,59,74" node-id="330" stroke="none" target-height="16.015999" target-width="44.232" target-x="15.431" target-y="14.631"></path></g><path d="M 36.38 23.97 L 15.43 36.22 L 15.43 41.98 L 59.66 41.98 Z" fill="#ffe5b0" fill-opacity="0.20210001" fill-rule="nonzero" group-id="1,4,59" node-id="333" stroke="none" target-height="18.010002" target-width="44.229" target-x="15.431" target-y="23.966"></path><path d="M 15.43 28.70 C 15.43 28.70 21.90 24.97 25.96 25.34 C 30.02 25.71 23.34 31.60 23.34 31.60 L 15.43 36.23 L 15.43 28.70 Z" fill="#ffe5b0" fill-opacity="0.20210001" fill-rule="nonzero" group-id="1,4,59" node-id="335" stroke="none" target-height="11.254002" target-width="14.587999" target-x="15.431" target-y="24.972"></path><path d="M 25.96 25.34 C 25.96 25.34 27.36 25.96 24.35 27.13 C 21.33 28.30 20.34 33.43 25.26 30.94 C 30.17 28.45 36.38 23.97 36.38 23.97 C 36.38 23.97 32.00 26.72 25.96 25.34 Z" fill="#f2d9a6" fill-opacity="0.20210001" fill-rule="nonzero" group-id="1,4,59" node-id="337" stroke="none" target-height="9.459999" target-width="16.032999" target-x="20.345" target-y="23.967"></path><path d="M 42.64 24.09 C 42.64 24.09 48.21 20.64 59.47 22.90 L 59.66 26.28 L 42.64 24.09 Z" fill="#ffe5b0" fill-opacity="0.20210001" fill-rule="nonzero" group-id="1,4,59" node-id="339" stroke="none" target-height="5.633999" target-width="17.015999" target-x="42.644" target-y="20.642"></path><path d="M 25.26 30.94 C 27.32 29.89 29.61 28.50 31.58 27.23 C 27.27 26.82 26.60 25.48 26.60 25.48 L 26.60 25.47 C 26.39 25.43 26.18 25.39 25.96 25.34 C 25.96 25.34 27.36 25.96 24.34 27.13 C 21.33 28.30 20.35 33.43 25.26 30.94 Z" fill="#d6c093" fill-opacity="0.20210001" fill-rule="nonzero" group-id="1,4,59" node-id="341" stroke="none" target-height="8.082998" target-width="11.231998" target-x="20.346" target-y="25.344"></path><path d="M 44.78 23.18 C 44.78 23.18 53.06 23.20 59.56 24.57 L 59.66 26.28 L 44.78 23.18 Z" fill="#d6c093" fill-opacity="0.084882" fill-rule="nonzero" group-id="1,4,59,75" node-id="345" stroke="none" target-height="3.091999" target-width="14.875999" target-x="44.784" target-y="23.184"></path><path d="M 40.99 22.86 C 40.99 22.86 33.40 22.23 37.19 27.05 C 40.99 31.87 59.66 41.98 59.66 41.98 L 59.66 26.28 C 59.66 26.28 46.32 22.86 40.99 22.86 Z" fill="#d6c093" fill-opacity="0.20210001" fill-rule="nonzero" group-id="1,4,59,76" node-id="350" stroke="none" target-height="19.742002" target-width="26.258" target-x="33.404" target-y="22.234"></path><path d="M 15.43 37.31 C 15.43 37.31 27.16 34.87 32.66 27.31 C 32.66 27.31 29.55 33.52 15.43 39.89 L 15.43 37.31 Z" fill="#d6c093" fill-opacity="0.054567005" fill-rule="nonzero" group-id="1,4,59,77" node-id="355" stroke="none" target-height="12.586002" target-width="17.230999" target-x="15.431" target-y="27.307"></path><path d="M 38.03 27.97 C 38.03 27.97 48.67 36.48 50.74 41.98 L 59.66 41.98 L 38.03 27.97 Z" fill="#d6c093" fill-opacity="0.050525002" fill-rule="nonzero" group-id="1,4,59,78" node-id="360" stroke="none" target-height="14.003002" target-width="21.632" target-x="38.03" target-y="27.973"></path><path d="M 39.61 28.37 C 35.18 22.82 44.05 23.53 44.05 23.53 C 45.00 23.53 46.02 23.54 47.07 23.54 C 44.72 23.14 42.52 22.86 40.99 22.86 C 40.99 22.86 33.40 22.23 37.19 27.05 C 38.88 29.19 43.48 32.36 48.08 35.23 C 44.64 32.99 41.32 30.51 39.61 28.37 Z M 59.35 26.20 L 59.35 41.78 C 59.35 41.78 58.91 41.55 58.16 41.15 C 59.10 41.67 59.66 41.98 59.66 41.98 L 59.66 26.28 C 59.66 26.28 59.55 26.25 59.35 26.20 Z" fill="#c7b289" fill-opacity="0.20210001" fill-rule="nonzero" group-id="1,4,59,79" node-id="365" stroke="none" target-height="19.741001" target-width="26.258" target-x="33.404" target-y="22.235"></path><path d="M 25.38 27.13 C 26.52 26.69 27.03 26.33 27.22 26.05 C 26.73 25.73 26.60 25.47 26.60 25.47 C 26.60 25.47 26.60 25.47 26.60 25.47 C 26.39 25.43 26.18 25.39 25.96 25.34 C 25.96 25.34 27.36 25.96 24.35 27.13 C 21.72 28.15 20.64 32.15 23.63 31.55 C 22.01 31.07 23.13 28.00 25.38 27.13 Z" fill="#c7b289" fill-opacity="0.20210001" fill-rule="nonzero" group-id="1,4,59,80" node-id="370" stroke="none" target-height="6.809" target-width="6.7250004" target-x="20.637" target-y="25.344"></path></g></g><g node-id="787"><path d="M 3.30 47.05 L 162.30 47.05 L 162.30 60.16 L 3.30 60.16 Z" fill="#ffffff" fill-opacity="0.43" fill-rule="nonzero" group-id="1,5" node-id="377" stroke="none" target-height="13.111" target-width="159" target-x="3.304" target-y="47.054"></path><path d="M 163.80 61.66 L 1.80 61.66 L 1.80 45.55 L 163.80 45.55 L 163.80 61.66 Z M 4.80 58.66 L 160.80 58.66 L 160.80 48.55 L 4.80 48.55 L 4.80 58.66 Z" fill="#ccccde" fill-opacity="0.43" fill-rule="nonzero" group-id="1,5" node-id="379" stroke="none" target-height="16.111" target-width="162" target-x="1.804" target-y="45.554"></path></g><g node-id="788"><path d="M 80.22 4.39 L 92.28 4.39 L 92.28 47.05 L 80.22 47.05 Z" fill="#f0f0ff" fill-opacity="0.43" fill-rule="nonzero" group-id="1,6" node-id="384" stroke="none" target-height="42.663002" target-width="12.055" target-x="80.225" target-y="4.391"></path><path d="M 92.28 48.55 L 80.22 48.55 C 79.40 48.55 78.72 47.88 78.72 47.05 L 78.72 4.39 C 78.72 3.56 79.40 2.89 80.22 2.89 L 92.28 2.89 C 93.11 2.89 93.78 3.56 93.78 4.39 L 93.78 47.05 C 93.78 47.88 93.11 48.55 92.28 48.55 Z M 81.72 45.55 L 90.78 45.55 L 90.78 5.89 L 81.72 5.89 L 81.72 45.55 Z" fill="#ccccde" fill-opacity="0.43" fill-rule="nonzero" group-id="1,6" node-id="386" stroke="none" target-height="45.663002" target-width="15.055" target-x="78.725" target-y="2.891"></path></g><g node-id="789"><path d="M 91.86 4.39 L 103.92 4.39 L 103.92 47.05 L 91.86 47.05 Z" fill="#bff4ff" fill-opacity="0.43" fill-rule="nonzero" group-id="1,7" node-id="391" stroke="none" target-height="42.663002" target-width="12.055" target-x="91.865" target-y="4.391"></path><path d="M 103.92 48.55 L 91.86 48.55 C 91.04 48.55 90.36 47.88 90.36 47.05 L 90.36 4.39 C 90.36 3.56 91.04 2.89 91.86 2.89 L 103.92 2.89 C 104.75 2.89 105.42 3.56 105.42 4.39 L 105.42 47.05 C 105.42 47.88 104.75 48.55 103.92 48.55 Z M 93.36 45.55 L 102.42 45.55 L 102.42 5.89 L 93.36 5.89 L 93.36 45.55 Z" fill="#ccccde" fill-opacity="0.43" fill-rule="nonzero" group-id="1,7" node-id="393" stroke="none" target-height="45.663002" target-width="15.055" target-x="90.365" target-y="2.891"></path></g><g node-id="790"><path d="M 103.92 4.39 L 115.97 4.39 L 115.97 47.05 L 103.92 47.05 Z" fill="#f4ffba" fill-opacity="0.43" fill-rule="nonzero" group-id="1,8" node-id="398" stroke="none" target-height="42.663002" target-width="12.055" target-x="103.92" target-y="4.391"></path><path d="M 115.97 48.55 L 103.92 48.55 C 103.09 48.55 102.42 47.88 102.42 47.05 L 102.42 4.39 C 102.42 3.56 103.09 2.89 103.92 2.89 L 115.97 2.89 C 116.80 2.89 117.47 3.56 117.47 4.39 L 117.47 47.05 C 117.47 47.88 116.80 48.55 115.97 48.55 Z M 105.42 45.55 L 114.47 45.55 L 114.47 5.89 L 105.42 5.89 L 105.42 45.55 Z" fill="#ccccde" fill-opacity="0.43" fill-rule="nonzero" group-id="1,8" node-id="400" stroke="none" target-height="45.663002" target-width="15.055" target-x="102.42" target-y="2.891"></path></g><g node-id="791"><g node-id="842"><path d="M 148.42 41.26 L 138.91 47.07 L 116.67 10.66 L 126.18 4.85 Z" fill="#ffdbdb" fill-opacity="0.43" fill-rule="nonzero" group-id="1,9,60" node-id="407" stroke="none" target-height="42.220203" target-width="31.752396" target-x="116.666855" target-y="4.8476906"></path></g><path d="M 138.91 48.56 C 138.41 48.56 137.91 48.31 137.63 47.85 L 115.39 11.44 C 115.18 11.10 115.12 10.69 115.21 10.30 C 115.31 9.92 115.55 9.58 115.89 9.38 L 125.40 3.57 C 125.74 3.36 126.15 3.29 126.53 3.39 C 126.92 3.48 127.25 3.72 127.46 4.06 L 149.70 40.47 C 150.13 41.18 149.91 42.10 149.20 42.54 L 139.69 48.34 C 139.45 48.49 139.18 48.56 138.91 48.56 Z M 118.73 11.15 L 139.41 45.00 L 146.36 40.76 L 125.68 6.91 L 118.73 11.15 Z" fill="#ccccde" fill-opacity="0.43" fill-rule="nonzero" group-id="1,9" node-id="410" stroke="none" target-height="45.269997" target-width="35.013992" target-x="115.119" target-y="3.295"></path></g><g node-id="792"><path d="M 84.07 101.60 L 123.67 101.60 L 123.67 134.60 L 84.07 134.60 Z" fill="#fff2e0" fill-opacity="0.43" fill-rule="nonzero" group-id="1,10" node-id="415" stroke="none" target-height="33.000008" target-width="39.600006" target-x="84.074" target-y="101.604"></path><path d="M 123.67 136.10 L 84.07 136.10 C 83.25 136.10 82.57 135.43 82.57 134.60 L 82.57 101.60 C 82.57 100.78 83.25 100.10 84.07 100.10 L 123.67 100.10 C 124.50 100.10 125.17 100.78 125.17 101.60 L 125.17 134.60 C 125.17 135.43 124.50 136.10 123.67 136.10 Z M 85.57 133.10 L 122.17 133.10 L 122.17 103.10 L 85.57 103.10 L 85.57 133.10 Z" fill="#ccccde" fill-opacity="0.43" fill-rule="nonzero" group-id="1,10" node-id="417" stroke="none" target-height="36.000008" target-width="42.600006" target-x="82.574" target-y="100.104"></path></g><g node-id="793"><path d="M 81.67 101.60 L 126.07 101.60 L 126.07 110.80 L 81.67 110.80 Z" fill="#fff2e0" fill-opacity="0.43" fill-rule="nonzero" group-id="1,11" node-id="422" stroke="none" target-height="9.200005" target-width="44.4" target-x="81.673" target-y="101.604"></path><path d="M 126.07 112.30 L 81.67 112.30 C 80.84 112.30 80.17 111.63 80.17 110.80 L 80.17 101.60 C 80.17 100.78 80.84 100.10 81.67 100.10 L 126.07 100.10 C 126.90 100.10 127.57 100.78 127.57 101.60 L 127.57 110.80 C 127.57 111.63 126.90 112.30 126.07 112.30 Z M 83.17 109.30 L 124.57 109.30 L 124.57 103.10 L 83.17 103.10 L 83.17 109.30 Z" fill="#ccccde" fill-opacity="0.43" fill-rule="nonzero" group-id="1,11" node-id="424" stroke="none" target-height="12.200005" target-width="47.4" target-x="80.173" target-y="100.104"></path></g><g node-id="794"><path d="M 97.87 116.10 L 109.87 116.10 L 109.87 119.10 L 97.87 119.10 Z" fill="#ccccde" fill-opacity="0.43" fill-rule="nonzero" group-id="1,12" node-id="429" stroke="none" target-height="3" target-width="12" target-x="97.873" target-y="116.104"></path></g><g node-id="795"><path d="M 110.96 244.86 L 119.90 244.86 L 119.90 252.38 L 110.96 252.38 Z" fill="#f0f0ff" fill-opacity="0.43" fill-rule="nonzero" group-id="1,13" node-id="434" stroke="none" target-height="7.528" target-width="8.938004" target-x="110.961" target-y="244.856"></path><path d="M 119.90 253.88 L 110.96 253.88 C 110.13 253.88 109.46 253.21 109.46 252.38 L 109.46 244.86 C 109.46 244.03 110.13 243.36 110.96 243.36 L 119.90 243.36 C 120.73 243.36 121.40 244.03 121.40 244.86 L 121.40 252.38 C 121.40 253.21 120.73 253.88 119.90 253.88 Z M 112.46 250.88 L 118.40 250.88 L 118.40 246.36 L 112.46 246.36 L 112.46 250.88 Z" fill="#ccccde" fill-opacity="0.43" fill-rule="nonzero" group-id="1,13" node-id="436" stroke="none" target-height="10.528" target-width="11.938004" target-x="109.462" target-y="243.357"></path></g><g node-id="796"><path d="M 51.91 244.86 L 60.85 244.86 L 60.85 252.38 L 51.91 252.38 Z" fill="#f0f0ff" fill-opacity="0.43" fill-rule="nonzero" group-id="1,14" node-id="441" stroke="none" target-height="7.528" target-width="8.938" target-x="51.908" target-y="244.856"></path><path d="M 60.85 253.88 L 51.91 253.88 C 51.08 253.88 50.41 253.21 50.41 252.38 L 50.41 244.86 C 50.41 244.03 51.08 243.36 51.91 243.36 L 60.85 243.36 C 61.68 243.36 62.35 244.03 62.35 244.86 L 62.35 252.38 C 62.35 253.21 61.68 253.88 60.85 253.88 Z M 53.41 250.88 L 59.35 250.88 L 59.35 246.36 L 53.41 246.36 L 53.41 250.88 Z" fill="#ccccde" fill-opacity="0.43" fill-rule="nonzero" group-id="1,14" node-id="443" stroke="none" target-height="10.528" target-width="11.938" target-x="50.409" target-y="243.357"></path></g><g node-id="797"><path d="M 181.31 134.53 L 177.25 115.44 L 160.00 115.44 L 156.21 134.80" fill="#f0f0ff" fill-opacity="0.43" fill-rule="nonzero" group-id="1,15" node-id="448" stroke="none" target-height="19.353996" target-width="25.095993" target-x="156.209" target-y="115.445"></path><path d="M 157.68 135.09 L 154.74 134.51 L 158.76 113.94 L 178.46 113.94 L 182.77 134.22 L 179.84 134.84 L 176.03 116.94 L 161.23 116.94 Z" fill="#6e6e96" fill-opacity="0.43" fill-rule="nonzero" group-id="1,15" node-id="450" stroke="none" target-height="21.142006" target-width="28.033997" target-x="154.738" target-y="113.945"></path></g><g node-id="798"><path d="M 186.03 136.30 L 151.49 136.30 C 150.66 136.30 149.99 135.63 149.99 134.80 C 149.99 133.97 150.66 133.30 151.49 133.30 L 186.03 133.30 C 186.86 133.30 187.53 133.97 187.53 134.80 C 187.53 135.63 186.86 136.30 186.03 136.30 Z" fill="#6e6e96" fill-opacity="0.43" fill-rule="nonzero" group-id="1,16" node-id="455" stroke="none" target-height="3" target-width="37.541" target-x="149.987" target-y="133.299"></path></g><g node-id="799"><path d="M 214.81 112.42 C 214.81 114.41 213.19 116.03 211.21 116.03 L 126.31 116.03 C 124.33 116.03 122.70 114.41 122.70 112.42 L 122.70 50.75 C 122.70 48.77 124.33 47.15 126.31 47.15 L 211.21 47.15 C 213.19 47.15 214.81 48.77 214.81 50.75 L 214.81 112.42 Z" fill="#f0f0ff" fill-opacity="0.43" fill-rule="nonzero" group-id="1,17" node-id="460" stroke="none" target-height="68.881" target-width="92.107" target-x="122.704" target-y="47.148"></path></g><g node-id="800"><path d="M 163.38 52.88 L 174.13 52.88 L 174.13 64.88 L 163.38 64.88 Z" fill="#ffffff" fill-opacity="0.43" fill-rule="nonzero" group-id="1,18" node-id="465" stroke="none" target-height="12" target-width="10.755997" target-x="163.379" target-y="52.875"></path></g><g node-id="801"><path d="M 165.54 51.09 L 171.97 51.09 L 171.97 63.09 L 165.54 63.09 Z" fill="#ffffff" fill-opacity="0.43" fill-rule="nonzero" group-id="1,19" node-id="470" stroke="none" target-height="12" target-width="6.423996" target-x="165.545" target-y="51.09"></path></g><g node-id="802"><path d="M 130.61 55.56 L 206.90 55.56 L 206.90 101.87 L 130.61 101.87 Z" fill="#96dfff" fill-opacity="0.43" fill-rule="nonzero" group-id="1,20" node-id="475" stroke="none" target-height="46.308" target-width="76.28999" target-x="130.612" target-y="55.558"></path><path d="M 206.90 103.37 L 130.61 103.37 C 129.78 103.37 129.11 102.69 129.11 101.87 L 129.11 55.56 C 129.11 54.73 129.78 54.06 130.61 54.06 L 206.90 54.06 C 207.73 54.06 208.40 54.73 208.40 55.56 L 208.40 101.87 C 208.40 102.69 207.73 103.37 206.90 103.37 Z M 132.11 100.37 L 205.40 100.37 L 205.40 57.06 L 132.11 57.06 L 132.11 100.37 Z" fill="#ccccde" fill-opacity="0.43" fill-rule="nonzero" group-id="1,20" node-id="477" stroke="none" target-height="49.308" target-width="79.28999" target-x="129.112" target-y="54.058"></path></g><g node-id="803"><path d="M 211.21 117.53 L 126.31 117.53 C 123.49 117.53 121.20 115.24 121.20 112.42 L 121.20 50.75 C 121.20 47.94 123.49 45.65 126.31 45.65 L 211.21 45.65 C 214.02 45.65 216.31 47.94 216.31 50.75 L 216.31 112.42 C 216.31 115.24 214.02 117.53 211.21 117.53 Z M 126.31 48.65 C 125.15 48.65 124.20 49.59 124.20 50.75 L 124.20 112.42 C 124.20 113.59 125.15 114.53 126.31 114.53 L 211.21 114.53 C 212.37 114.53 213.31 113.58 213.31 112.42 L 213.31 50.75 C 213.31 49.59 212.37 48.65 211.21 48.65 L 126.31 48.65 Z" fill="#ccccde" fill-opacity="0.43" fill-rule="nonzero" group-id="1,21" node-id="482" stroke="none" target-height="71.881" target-width="95.107" target-x="121.204" target-y="45.648"></path></g><g node-id="804"><path d="M 159.88 117.23 L 178.27 117.23 L 178.27 121.48 L 159.88 121.48 Z" fill="#6e6e96" fill-opacity="0.43" fill-rule="nonzero" group-id="1,22" node-id="487" stroke="none" target-height="4.248993" target-width="18.391006" target-x="159.883" target-y="117.23"></path></g><g node-id="805"><path d="M 128.22 149.49 L 128.22 248.31 L 42.58 248.31 L 42.58 149.49" fill="#ffffff" fill-opacity="0.43" fill-rule="nonzero" group-id="1,23" node-id="492" stroke="none" target-height="98.815994" target-width="85.64" target-x="42.575" target-y="149.494"></path><path d="M 128.22 249.81 L 42.58 249.81 C 41.75 249.81 41.08 249.14 41.08 248.31 L 41.08 149.50 C 41.08 148.67 41.75 148.00 42.58 148.00 C 43.40 148.00 44.08 148.67 44.08 149.50 L 44.08 246.81 L 126.72 246.81 L 126.72 149.50 C 126.72 148.67 127.39 148.00 128.22 148.00 C 129.04 148.00 129.72 148.67 129.72 149.50 L 129.72 248.31 C 129.72 249.14 129.04 249.81 128.22 249.81 Z" fill="#ccccde" fill-opacity="0.43" fill-rule="nonzero" group-id="1,23" node-id="494" stroke="none" target-height="101.815" target-width="88.64" target-x="41.075" target-y="147.995"></path></g><g node-id="806"><path d="M 214.95 149.49 L 224.36 149.49 L 224.36 251.13 L 214.95 251.13 Z" fill="#ffffff" fill-opacity="0.43" fill-rule="nonzero" group-id="1,24" node-id="499" stroke="none" target-height="101.63899" target-width="9.408005" target-x="214.954" target-y="149.494"></path><path d="M 224.36 252.63 L 214.96 252.63 C 214.13 252.63 213.46 251.96 213.46 251.13 L 213.46 149.49 C 213.46 148.67 214.13 147.99 214.96 147.99 L 224.36 147.99 C 225.19 147.99 225.86 148.67 225.86 149.49 L 225.86 251.13 C 225.86 251.96 225.19 252.63 224.36 252.63 Z M 216.45 249.63 L 222.86 249.63 L 222.86 150.99 L 216.45 150.99 L 216.45 249.63 Z" fill="#ccccde" fill-opacity="0.43" fill-rule="nonzero" group-id="1,24" node-id="501" stroke="none" target-height="104.63899" target-width="12.408005" target-x="213.455" target-y="147.994"></path></g><g node-id="807"><path d="M 27.05 134.12 L 242.56 134.12 L 242.56 149.49 L 27.05 149.49 Z" fill="#ffffff" fill-opacity="0.43" fill-rule="nonzero" group-id="1,25" node-id="506" stroke="none" target-height="15.369003" target-width="215.51201" target-x="27.047" target-y="134.123"></path><path d="M 242.56 150.99 L 27.05 150.99 C 26.22 150.99 25.55 150.32 25.55 149.49 L 25.55 134.12 C 25.55 133.29 26.22 132.62 27.05 132.62 L 242.56 132.62 C 243.39 132.62 244.06 133.29 244.06 134.12 L 244.06 149.49 C 244.06 150.32 243.39 150.99 242.56 150.99 Z M 28.55 147.99 L 241.06 147.99 L 241.06 135.62 L 28.55 135.62 L 28.55 147.99 Z" fill="#ccccde" fill-opacity="0.43" fill-rule="nonzero" group-id="1,25" node-id="508" stroke="none" target-height="18.369003" target-width="218.51201" target-x="25.547" target-y="132.623"></path></g><g node-id="808"><path d="M 50.58 157.96 L 121.16 157.96 L 121.16 180.55 L 50.58 180.55 Z" fill="#ffffff" fill-opacity="0.43" fill-rule="nonzero" group-id="1,26" node-id="513" stroke="none" target-height="22.585999" target-width="70.582" target-x="50.575" target-y="157.963"></path><path d="M 121.16 182.05 L 50.58 182.05 C 49.75 182.05 49.08 181.38 49.08 180.55 L 49.08 157.96 C 49.08 157.13 49.75 156.46 50.58 156.46 L 121.16 156.46 C 121.99 156.46 122.66 157.13 122.66 157.96 L 122.66 180.55 C 122.66 181.38 121.99 182.05 121.16 182.05 Z M 52.08 179.05 L 119.66 179.05 L 119.66 159.46 L 52.08 159.46 L 52.08 179.05 Z" fill="#ccccde" fill-opacity="0.43" fill-rule="nonzero" group-id="1,26" node-id="515" stroke="none" target-height="25.585999" target-width="73.582" target-x="49.075" target-y="156.463"></path></g><g node-id="809"><path d="M 50.58 187.14 L 121.16 187.14 L 121.16 210.48 L 50.58 210.48 Z" fill="#ffffff" fill-opacity="0.43" fill-rule="nonzero" group-id="1,27" node-id="520" stroke="none" target-height="23.343994" target-width="70.582" target-x="50.575" target-y="187.138"></path><path d="M 121.16 211.98 L 50.58 211.98 C 49.75 211.98 49.08 211.31 49.08 210.48 L 49.08 187.14 C 49.08 186.31 49.75 185.64 50.58 185.64 L 121.16 185.64 C 121.99 185.64 122.66 186.31 122.66 187.14 L 122.66 210.48 C 122.66 211.31 121.99 211.98 121.16 211.98 Z M 52.08 208.98 L 119.66 208.98 L 119.66 188.64 L 52.08 188.64 L 52.08 208.98 Z" fill="#ccccde" fill-opacity="0.43" fill-rule="nonzero" group-id="1,27" node-id="522" stroke="none" target-height="26.34401" target-width="73.582" target-x="49.075" target-y="185.637"></path></g><g node-id="810"><path d="M 50.58 216.31 L 121.16 216.31 L 121.16 240.47 L 50.58 240.47 Z" fill="#ffffff" fill-opacity="0.43" fill-rule="nonzero" group-id="1,28" node-id="527" stroke="none" target-height="24.153" target-width="70.58299" target-x="50.575" target-y="216.313"></path><path d="M 121.16 241.97 L 50.58 241.97 C 49.75 241.97 49.08 241.29 49.08 240.47 L 49.08 216.31 C 49.08 215.49 49.75 214.81 50.58 214.81 L 121.16 214.81 C 121.99 214.81 122.66 215.49 122.66 216.31 L 122.66 240.47 C 122.66 241.29 121.99 241.97 121.16 241.97 Z M 52.08 238.97 L 119.66 238.97 L 119.66 217.81 L 52.08 217.81 L 52.08 238.97 Z" fill="#ccccde" fill-opacity="0.43" fill-rule="nonzero" group-id="1,28" node-id="529" stroke="none" target-height="27.153" target-width="73.58299" target-x="49.075" target-y="214.814"></path></g><g node-id="811"><path d="M 93.37 170.76 L 78.36 170.76 C 77.53 170.76 76.86 170.08 76.86 169.26 C 76.86 168.43 77.53 167.76 78.36 167.76 L 93.38 167.76 C 94.20 167.76 94.88 168.43 94.88 169.26 C 94.88 170.08 94.20 170.76 93.37 170.76 Z" fill="#ccccde" fill-opacity="0.43" fill-rule="nonzero" group-id="1,29" node-id="534" stroke="none" target-height="3" target-width="18.018997" target-x="76.856" target-y="167.756"></path></g><g node-id="812"><path d="M 93.37 200.94 L 78.36 200.94 C 77.53 200.94 76.86 200.26 76.86 199.44 C 76.86 198.61 77.53 197.94 78.36 197.94 L 93.38 197.94 C 94.20 197.94 94.88 198.61 94.88 199.44 C 94.88 200.26 94.20 200.94 93.37 200.94 Z" fill="#ccccde" fill-opacity="0.43" fill-rule="nonzero" group-id="1,30" node-id="539" stroke="none" target-height="3" target-width="18.018997" target-x="76.856" target-y="197.935"></path></g><g node-id="813"><path d="M 93.37 230.09 L 78.36 230.09 C 77.53 230.09 76.86 229.42 76.86 228.59 C 76.86 227.77 77.53 227.09 78.36 227.09 L 93.38 227.09 C 94.20 227.09 94.88 227.77 94.88 228.59 C 94.88 229.42 94.20 230.09 93.37 230.09 Z" fill="#ccccde" fill-opacity="0.43" fill-rule="nonzero" group-id="1,31" node-id="544" stroke="none" target-height="3" target-width="18.018997" target-x="76.856" target-y="227.095"></path></g><g node-id="814"><path d="M 52.38 159.29 L 119.43 159.29 L 119.43 162.29 L 52.38 162.29 Z" fill="#ffffff" fill-opacity="0.43" fill-rule="nonzero" group-id="1,32" node-id="549" stroke="none" target-height="3" target-width="67.053" target-x="52.378" target-y="159.287"></path></g><g node-id="815"><path d="M 52.14 188.46 L 119.43 188.46 L 119.43 191.46 L 52.14 191.46 Z" fill="#ffffff" fill-opacity="0.43" fill-rule="nonzero" group-id="1,33" node-id="554" stroke="none" target-height="3" target-width="67.287994" target-x="52.143" target-y="188.459"></path></g><g node-id="816"><path d="M 51.91 217.87 L 119.43 217.87 L 119.43 220.87 L 51.91 220.87 Z" fill="#ffffff" fill-opacity="0.43" fill-rule="nonzero" group-id="1,34" node-id="559" stroke="none" target-height="3" target-width="67.522" target-x="51.908" target-y="217.871"></path></g><g node-id="817"><path d="M 165.07 200.21 L 175.21 200.21 L 175.21 243.82 L 165.07 243.82 Z" fill="#ffffff" fill-opacity="0.43" fill-rule="nonzero" group-id="1,35" node-id="564" stroke="none" target-height="43.604004" target-width="10.143005" target-x="165.069" target-y="200.213"></path><path d="M 175.21 245.32 L 165.07 245.32 C 164.24 245.32 163.57 244.65 163.57 243.82 L 163.57 200.21 C 163.57 199.38 164.24 198.71 165.07 198.71 L 175.21 198.71 C 176.04 198.71 176.71 199.38 176.71 200.21 L 176.71 243.82 C 176.71 244.65 176.04 245.32 175.21 245.32 Z M 166.57 242.32 L 173.71 242.32 L 173.71 201.71 L 166.57 201.71 L 166.57 242.32 Z" fill="#ccccde" fill-opacity="0.43" fill-rule="nonzero" group-id="1,35" node-id="566" stroke="none" target-height="46.604004" target-width="13.143005" target-x="163.568" target-y="198.713"></path></g><g node-id="818"><path d="M 191.37 243.81 C 191.37 246.04 189.55 247.87 187.31 247.87 L 152.96 247.87 C 150.73 247.87 148.91 246.05 148.91 243.81 L 148.91 243.81 C 148.91 241.58 150.73 239.76 152.96 239.76 L 187.31 239.76 C 189.54 239.76 191.37 241.58 191.37 243.81 L 191.37 243.81 Z" fill="#ccccde" fill-opacity="0.43" fill-rule="nonzero" group-id="1,36" node-id="571" stroke="none" target-height="8.113998" target-width="42.46399" target-x="148.906" target-y="239.757"></path><path d="M 187.31 248.37 L 152.96 248.37 C 150.45 248.37 148.41 246.33 148.41 243.81 C 148.41 241.30 150.45 239.26 152.96 239.26 L 187.31 239.26 C 189.83 239.26 191.87 241.31 191.87 243.81 C 191.87 246.33 189.82 248.37 187.31 248.37 Z M 152.96 240.26 C 151.00 240.26 149.41 241.85 149.41 243.82 C 149.41 245.78 151.00 247.37 152.96 247.37 L 187.31 247.37 C 189.27 247.37 190.87 245.78 190.87 243.82 C 190.87 241.86 189.27 240.26 187.31 240.26 L 152.96 240.26 Z" fill="#ccccde" fill-opacity="0.43" fill-rule="nonzero" group-id="1,36" node-id="573" stroke="none" target-height="9.113998" target-width="43.464005" target-x="148.407" target-y="239.257"></path></g><g node-id="819"><path d="M 182.31 255.46 C 181.48 255.46 180.81 254.78 180.81 253.96 L 180.81 247.87 C 180.81 247.04 181.48 246.37 182.31 246.37 C 183.13 246.37 183.81 247.04 183.81 247.87 L 183.81 253.96 C 183.81 254.78 183.13 255.46 182.31 255.46 Z" fill="#ccccde" fill-opacity="0.43" fill-rule="nonzero" group-id="1,37" node-id="578" stroke="none" target-height="9.084" target-width="3" target-x="180.807" target-y="246.371"></path><path d="M 157.97 255.46 C 157.14 255.46 156.47 254.78 156.47 253.96 L 156.47 247.87 C 156.47 247.04 157.14 246.37 157.97 246.37 C 158.80 246.37 159.47 247.04 159.47 247.87 L 159.47 253.96 C 159.47 254.78 158.80 255.46 157.97 255.46 Z" fill="#ccccde" fill-opacity="0.43" fill-rule="nonzero" group-id="1,37" node-id="580" stroke="none" target-height="9.084" target-width="3" target-x="156.47" target-y="246.371"></path></g><g node-id="820"><path d="M 161.27 228.60 L 180.28 228.60 L 180.28 239.76 L 161.27 239.76 Z" fill="#ffffff" fill-opacity="0.43" fill-rule="nonzero" group-id="1,38" node-id="585" stroke="none" target-height="11.153" target-width="19.013992" target-x="161.266" target-y="228.604"></path><path d="M 180.28 241.26 L 161.27 241.26 C 160.44 241.26 159.77 240.59 159.77 239.76 L 159.77 228.60 C 159.77 227.78 160.44 227.10 161.27 227.10 L 180.28 227.10 C 181.11 227.10 181.78 227.78 181.78 228.60 L 181.78 239.76 C 181.78 240.59 181.11 241.26 180.28 241.26 Z M 162.77 238.26 L 178.78 238.26 L 178.78 230.10 L 162.77 230.10 L 162.77 238.26 Z" fill="#ccccde" fill-opacity="0.43" fill-rule="nonzero" group-id="1,38" node-id="587" stroke="none" target-height="14.153" target-width="22.013992" target-x="159.766" target-y="227.105"></path></g><g node-id="821"><path d="M 166.34 189.06 L 173.88 189.06 L 173.88 200.21 L 166.34 200.21 Z" fill="#ffffff" fill-opacity="0.43" fill-rule="nonzero" group-id="1,39" node-id="592" stroke="none" target-height="11.151001" target-width="7.5410004" target-x="166.336" target-y="189.062"></path><path d="M 173.88 201.71 L 166.34 201.71 C 165.51 201.71 164.84 201.04 164.84 200.21 L 164.84 189.06 C 164.84 188.23 165.51 187.56 166.34 187.56 L 173.88 187.56 C 174.71 187.56 175.38 188.23 175.38 189.06 L 175.38 200.21 C 175.38 201.04 174.71 201.71 173.88 201.71 Z M 167.84 198.71 L 172.38 198.71 L 172.38 190.56 L 167.84 190.56 L 167.84 198.71 Z" fill="#ccccde" fill-opacity="0.43" fill-rule="nonzero" group-id="1,39" node-id="594" stroke="none" target-height="14.151001" target-width="10.541" target-x="164.836" target-y="187.562"></path></g><g node-id="822"><path d="M 214.25 185.00 C 214.25 187.79 211.97 190.07 209.18 190.07 L 131.10 190.07 C 128.31 190.07 126.03 187.79 126.03 185.00 L 126.03 181.96 C 126.03 179.17 128.31 176.89 131.10 176.89 L 209.18 176.89 C 211.97 176.89 214.25 179.17 214.25 181.96 L 214.25 185.00 L 214.25 185.00 Z" fill="#facdd4" fill-opacity="0.43" fill-rule="nonzero" group-id="1,40" node-id="599" stroke="none" target-height="13.179001" target-width="88.214" target-x="126.033" target-y="176.894"></path><path d="M 209.18 190.57 L 131.10 190.57 C 128.03 190.57 125.53 188.07 125.53 185.00 L 125.53 181.96 C 125.53 178.89 128.03 176.39 131.10 176.39 L 209.18 176.39 C 212.25 176.39 214.75 178.89 214.75 181.96 L 214.75 185.00 C 214.75 188.07 212.25 190.57 209.18 190.57 Z M 131.10 177.39 C 128.58 177.39 126.53 179.44 126.53 181.96 L 126.53 185.00 C 126.53 187.52 128.58 189.57 131.10 189.57 L 209.18 189.57 C 211.70 189.57 213.75 187.52 213.75 185.00 L 213.75 181.96 C 213.75 179.44 211.70 177.39 209.18 177.39 L 131.10 177.39 Z" fill="#ccccde" fill-opacity="0.43" fill-rule="nonzero" group-id="1,40" node-id="601" stroke="none" target-height="14.179001" target-width="89.214" target-x="125.533" target-y="176.394"></path></g><g node-id="823"><path d="M 209.18 191.57 L 131.10 191.57 C 127.48 191.57 124.53 188.63 124.53 185.00 L 124.53 181.96 C 124.53 178.34 127.48 175.39 131.10 175.39 L 209.18 175.39 C 212.80 175.39 215.75 178.34 215.75 181.96 L 215.75 185.00 C 215.75 188.63 212.80 191.57 209.18 191.57 Z M 131.10 178.39 C 129.13 178.39 127.53 180.00 127.53 181.96 L 127.53 185.00 C 127.53 186.97 129.13 188.57 131.10 188.57 L 209.18 188.57 C 211.15 188.57 212.75 186.97 212.75 185.00 L 212.75 181.96 C 212.75 179.99 211.14 178.39 209.18 178.39 L 131.10 178.39 Z" fill="#ccccde" fill-opacity="0.43" fill-rule="nonzero" group-id="1,41" node-id="606" stroke="none" target-height="16.179" target-width="91.214" target-x="124.533" target-y="175.394"></path></g><g node-id="824"><path d="M 191.37 243.81 C 191.37 246.04 189.55 247.87 187.31 247.87 L 152.96 247.87 C 150.73 247.87 148.91 246.05 148.91 243.81 L 148.91 243.81 C 148.91 241.58 150.73 239.76 152.96 239.76 L 187.31 239.76 C 189.54 239.76 191.37 241.58 191.37 243.81 L 191.37 243.81 Z" fill="#ffffff" fill-opacity="0.43" fill-rule="nonzero" group-id="1,42" node-id="611" stroke="none" target-height="8.113998" target-width="42.46399" target-x="148.906" target-y="239.757"></path><path d="M 187.31 249.37 L 152.96 249.37 C 149.90 249.37 147.41 246.88 147.41 243.81 C 147.41 240.75 149.90 238.26 152.96 238.26 L 187.31 238.26 C 190.38 238.26 192.87 240.75 192.87 243.81 C 192.87 246.88 190.38 249.37 187.31 249.37 Z M 152.96 241.26 C 151.55 241.26 150.41 242.41 150.41 243.82 C 150.41 245.22 151.55 246.37 152.96 246.37 L 187.31 246.37 C 188.72 246.37 189.87 245.23 189.87 243.82 C 189.87 242.41 188.72 241.26 187.31 241.26 L 152.96 241.26 Z" fill="#ccccde" fill-opacity="0.43" fill-rule="nonzero" group-id="1,42" node-id="613" stroke="none" target-height="11.113998" target-width="45.464005" target-x="147.407" target-y="238.257"></path></g><g node-id="825"><g node-id="843"><path d="M 63.38 131.04 C 63.38 132.44 62.24 133.57 60.85 133.57 L 35.05 133.57 C 33.65 133.57 32.52 132.44 32.52 131.04 L 32.52 130.35 C 32.52 128.96 33.65 127.82 35.05 127.82 L 60.85 127.82 C 62.24 127.82 63.38 128.96 63.38 130.35 L 63.38 131.04 Z" fill="#f0f0ff" fill-opacity="0.43" fill-rule="nonzero" group-id="1,43,61" node-id="620" stroke="none" target-height="5.7509995" target-width="30.862" target-x="32.515" target-y="127.822"></path><path d="M 60.85 135.07 L 35.05 135.07 C 32.82 135.07 31.02 133.27 31.02 131.04 L 31.02 130.35 C 31.02 128.13 32.82 126.32 35.05 126.32 L 60.85 126.32 C 63.07 126.32 64.88 128.13 64.88 130.35 L 64.88 131.04 C 64.88 133.27 63.07 135.07 60.85 135.07 Z M 35.05 129.32 C 34.48 129.32 34.02 129.78 34.02 130.35 L 34.02 131.04 C 34.02 131.61 34.48 132.07 35.05 132.07 L 60.85 132.07 C 61.41 132.07 61.88 131.61 61.88 131.04 L 61.88 130.35 C 61.88 129.79 61.41 129.32 60.85 129.32 L 35.05 129.32 Z" fill="#ccccde" fill-opacity="0.43" fill-rule="nonzero" group-id="1,43,61" node-id="622" stroke="none" target-height="8.750999" target-width="33.862" target-x="31.015" target-y="126.322"></path></g><g node-id="844"><path d="M 58.96 66.63 L 61.07 68.75 L 29.97 99.77 L 27.85 97.65 Z" fill="#ccccde" fill-opacity="0.43" fill-rule="nonzero" group-id="1,43,62" node-id="627" stroke="none" target-height="33.143982" target-width="33.22584" target-x="27.848324" target-y="66.62875"></path></g><g node-id="845"><path d="M 31.11 106.48 L 44.26 127.01 L 41.74 128.63 L 28.58 108.10 Z" fill="#ccccde" fill-opacity="0.43" fill-rule="nonzero" group-id="1,43,63" node-id="632" stroke="none" target-height="22.142097" target-width="15.681961" target-x="28.58107" target-y="106.484"></path></g><g node-id="846"><path d="M 92.97 72.09 C 84.21 63.33 71.75 61.45 65.28 67.91 C 58.82 74.37 60.70 86.83 69.47 95.60 L 92.97 72.09 Z" fill="#cef2da" fill-opacity="0.43" fill-rule="nonzero" group-id="1,43,64" node-id="637" stroke="none" target-height="34.151" target-width="34.153" target-x="58.819" target-y="61.445"></path><path d="M 69.47 97.72 L 68.41 96.66 C 63.94 92.19 61.02 86.67 60.18 81.11 C 59.32 75.39 60.75 70.32 64.22 66.85 C 67.03 64.05 70.87 62.56 75.34 62.56 C 81.74 62.56 88.73 65.73 94.03 71.03 L 95.09 72.09 L 69.47 97.72 Z M 75.34 65.56 C 71.68 65.56 68.57 66.74 66.35 68.97 C 63.56 71.75 62.43 75.90 63.15 80.67 C 63.83 85.16 66.07 89.65 69.50 93.45 L 90.82 72.12 C 86.24 67.99 80.55 65.56 75.34 65.56 Z" fill="#ccccde" fill-opacity="0.43" fill-rule="nonzero" group-id="1,43,64" node-id="639" stroke="none" target-height="35.153004" target-width="35.777" target-x="59.316" target-y="62.564"></path></g><g node-id="847"><path d="M 68.86 63.39 C 68.86 66.20 66.58 68.47 63.77 68.47 C 60.96 68.47 58.69 66.20 58.69 63.39 C 58.69 60.58 60.96 58.31 63.77 58.31 C 66.58 58.31 68.86 60.58 68.86 63.39 Z" fill="#f0f0ff" fill-opacity="0.43" fill-rule="nonzero" group-id="1,43,65" node-id="644" stroke="none" target-height="10.166" target-width="10.166004" target-x="58.689" target-y="58.307"></path><path d="M 63.77 69.97 C 60.14 69.97 57.19 67.02 57.19 63.39 C 57.19 59.76 60.14 56.81 63.77 56.81 C 67.40 56.81 70.36 59.76 70.36 63.39 C 70.36 67.02 67.40 69.97 63.77 69.97 Z M 63.77 59.81 C 61.80 59.81 60.19 61.41 60.19 63.39 C 60.19 65.37 61.80 66.97 63.77 66.97 C 65.75 66.97 67.36 65.37 67.36 63.39 C 67.36 61.41 65.75 59.81 63.77 59.81 Z" fill="#ccccde" fill-opacity="0.43" fill-rule="nonzero" group-id="1,43,65" node-id="646" stroke="none" target-height="13.166" target-width="13.166004" target-x="57.189" target-y="56.807"></path></g><g node-id="848"><path d="M 32.41 102.67 C 32.41 105.58 30.05 107.93 27.14 107.93 C 24.24 107.93 21.88 105.58 21.88 102.67 C 21.88 99.77 24.24 97.41 27.14 97.41 C 30.05 97.41 32.41 99.77 32.41 102.67 Z" fill="#f0f0ff" fill-opacity="0.43" fill-rule="nonzero" group-id="1,43,66" node-id="651" stroke="none" target-height="10.523994" target-width="10.523998" target-x="21.882" target-y="97.41"></path><path d="M 27.14 109.43 C 23.41 109.43 20.38 106.40 20.38 102.67 C 20.38 98.94 23.41 95.91 27.14 95.91 C 30.87 95.91 33.91 98.94 33.91 102.67 C 33.91 106.40 30.87 109.43 27.14 109.43 Z M 27.14 98.91 C 25.07 98.91 23.38 100.60 23.38 102.67 C 23.38 104.75 25.07 106.43 27.14 106.43 C 29.22 106.43 30.91 104.75 30.91 102.67 C 30.91 100.60 29.22 98.91 27.14 98.91 Z" fill="#ccccde" fill-opacity="0.43" fill-rule="nonzero" group-id="1,43,66" node-id="653" stroke="none" target-height="13.523994" target-width="13.525002" target-x="20.382" target-y="95.91"></path></g></g></g><g node-id="784"><g node-id="826"><path d="M 33.80 84.95 L 51.47 84.95 L 70.02 84.95 C 79.73 84.95 87.68 77.00 87.68 67.28 L 87.68 60.18 C 87.68 50.47 79.73 42.51 70.02 42.51 L 51.47 42.51 C 41.75 42.51 33.80 50.47 33.80 60.18 L 33.80 67.28 L 33.80 84.95 Z" fill="#cbe2f0" fill-rule="nonzero" group-id="2,44" node-id="661" stroke="none" target-height="42.434998" target-width="53.885998" target-x="33.798" target-y="42.514"></path><path d="M 70.02 86.45 L 32.30 86.45 L 32.30 60.18 C 32.30 49.61 40.90 41.01 51.47 41.01 L 70.02 41.01 C 75.12 41.01 79.92 43.01 83.56 46.64 C 87.19 50.27 89.18 55.08 89.18 60.18 L 89.18 67.28 C 89.18 77.85 80.58 86.45 70.02 86.45 Z M 35.30 83.45 L 70.02 83.45 C 78.93 83.45 86.18 76.20 86.18 67.28 L 86.18 60.18 C 86.18 55.88 84.50 51.83 81.43 48.76 C 78.37 45.70 74.31 44.01 70.02 44.01 L 51.47 44.01 C 42.55 44.01 35.30 51.27 35.30 60.18 L 35.30 83.45 Z" fill="#6e6e96" fill-rule="nonzero" group-id="2,44" node-id="663" stroke="none" target-height="45.434998" target-width="56.885998" target-x="32.298" target-y="41.014"></path></g><path d="M 69.10 190.69 L 69.10 64.63 C 70.02 42.51 51.47 42.51 51.47 42.51 L 191.87 42.51 C 200.79 42.51 208.09 49.81 208.09 58.74 L 208.09 212.91 L 69.10 212.91 L 69.10 190.69" fill="#cbe2f0" fill-rule="nonzero" group-id="2" node-id="666" stroke="none" target-height="170.39401" target-width="156.628" target-x="51.465" target-y="42.514"></path><path d="M 59.84 42.52 C 59.84 42.52 69.09 49.72 69.09 61.46 L 208.09 61.46 C 208.09 61.46 208.46 42.52 191.87 42.52 C 175.29 42.52 59.84 42.52 59.84 42.52 Z" fill="#ffffff" fill-opacity="0.28" fill-rule="nonzero" group-id="2,45" node-id="670" stroke="none" target-height="18.944" target-width="148.61699" target-x="59.839" target-y="42.515"></path><path d="M 35.03 66.43 L 68.65 66.43 C 68.65 66.43 70.15 42.97 51.01 42.97 C 31.88 42.97 33.35 67.73 33.35 67.73" fill="#6e6e96" fill-opacity="0.1" fill-rule="nonzero" group-id="2,46" node-id="675" stroke="none" target-height="24.767002" target-width="38.272003" target-x="31.878" target-y="42.966"></path><path d="M 209.59 214.41 L 67.60 214.41 L 67.60 64.63 C 67.88 57.79 66.29 52.55 62.87 48.99 C 58.16 44.07 51.53 44.01 51.47 44.01 L 51.47 41.01 L 191.87 41.01 C 201.64 41.01 209.59 48.96 209.59 58.74 L 209.59 214.41 Z M 70.60 211.41 L 206.59 211.41 L 206.59 58.74 C 206.59 50.62 199.99 44.01 191.87 44.01 L 61.44 44.01 C 62.67 44.77 63.90 45.72 65.04 46.91 C 69.05 51.09 70.92 57.07 70.60 64.69 L 70.60 211.41 Z" fill="#6e6e96" fill-rule="nonzero" group-id="2" node-id="678" stroke="none" target-height="173.39401" target-width="158.128" target-x="51.465" target-y="41.014"></path><path d="M 131.04 204.47 L 93.15 204.47 C 92.33 204.47 91.66 203.81 91.65 202.99 C 91.60 196.49 86.28 191.20 79.78 191.20 C 79.73 191.20 79.67 191.21 79.62 191.21 C 79.54 191.22 79.45 191.22 79.37 191.22 C 78.94 191.25 78.57 191.08 78.28 190.80 C 77.99 190.52 77.83 190.13 77.83 189.72 L 77.83 56.15 C 77.83 55.32 78.50 54.65 79.33 54.65 C 80.16 54.65 80.83 55.32 80.83 56.15 L 80.83 188.24 C 87.99 188.74 93.80 194.38 94.57 201.47 L 131.04 201.47 C 131.87 201.47 132.54 202.15 132.54 202.97 C 132.54 203.80 131.87 204.47 131.04 204.47 Z" fill="#6e6e96" fill-opacity="0.36" fill-rule="nonzero" group-id="2,47" node-id="682" stroke="none" target-height="149.825" target-width="54.711" target-x="77.828" target-y="54.649"></path><path d="M 196.28 150.10 C 195.45 150.10 194.78 149.43 194.78 148.60 L 194.78 56.16 C 194.78 55.33 195.45 54.66 196.28 54.66 C 197.11 54.66 197.78 55.33 197.78 56.16 L 197.78 148.60 C 197.78 149.43 197.11 150.10 196.28 150.10 Z" fill="#6e6e96" fill-opacity="0.36" fill-rule="nonzero" group-id="2,48" node-id="687" stroke="none" target-height="95.442" target-width="3" target-x="194.779" target-y="54.657"></path><path d="M 154.93 200.14 L 155.04 240.13 L 167.02 228.03 L 179.12 240.01 L 179.00 200.02" fill="#ff9999" fill-rule="nonzero" group-id="2,49,67" node-id="694" stroke="none" target-height="40.115005" target-width="24.18901" target-x="154.926" target-y="200.017"></path><path d="M 155.04 241.63 C 154.85 241.63 154.66 241.60 154.47 241.52 C 153.91 241.29 153.54 240.74 153.54 240.14 L 153.43 200.14 C 153.42 199.31 154.09 198.64 154.92 198.64 C 154.92 198.64 154.93 198.64 154.93 198.64 C 155.75 198.64 156.42 199.31 156.43 200.13 L 156.53 236.50 L 165.95 226.98 C 166.53 226.39 167.48 226.39 168.07 226.97 L 177.60 236.40 L 177.50 200.02 C 177.49 199.19 178.16 198.52 178.99 198.52 C 178.99 198.52 179.00 198.52 179.00 198.52 C 179.82 198.52 180.49 199.19 180.50 200.01 L 180.62 240.00 C 180.62 240.61 180.25 241.16 179.69 241.39 C 179.13 241.62 178.49 241.50 178.06 241.07 L 167.03 230.16 L 156.11 241.19 C 155.82 241.48 155.44 241.63 155.04 241.63 Z" fill="#6e6e96" fill-rule="nonzero" group-id="2,49,67" node-id="696" stroke="none" target-height="43.115997" target-width="27.193008" target-x="153.424" target-y="198.516"></path><path d="M 199.50 176.12 C 199.50 194.35 184.72 209.13 166.49 209.13 C 148.26 209.13 133.48 194.35 133.48 176.12 C 133.48 157.89 148.26 143.11 166.49 143.11 C 184.72 143.11 199.50 157.89 199.50 176.12 Z" fill="#ffd28f" fill-rule="nonzero" group-id="2,49" node-id="699" stroke="none" target-height="66.017" target-width="66.022" target-x="133.476" target-y="143.112"></path><path d="M 138.85 177.84 C 138.85 161.73 151.91 148.67 168.02 148.67 C 175.08 148.67 183.09 151.17 188.13 155.34 C 182.78 148.87 173.15 144.74 164.09 144.74 C 147.99 144.74 134.93 157.80 134.93 173.91 C 134.93 182.97 139.05 192.09 145.53 197.43 C 141.36 192.39 138.85 184.90 138.85 177.84 Z" fill="#ffffff" fill-opacity="0.75" fill-rule="nonzero" group-id="2,49,68" node-id="703" stroke="none" target-height="52.692" target-width="53.207" target-x="134.925" target-y="144.74"></path><path d="M 172.92 143.74 C 185.59 147.32 194.88 158.97 194.88 172.79 C 194.88 189.46 181.37 202.97 164.69 202.97 C 148.02 202.97 134.50 189.46 134.50 172.79 C 134.50 169.65 134.98 166.63 135.87 163.79 C 134.33 167.60 133.48 171.76 133.48 176.12 C 133.48 194.35 148.26 209.13 166.49 209.13 C 184.72 209.13 199.50 194.35 199.50 176.12 C 199.50 160.09 188.07 146.74 172.92 143.74 Z" fill="#e8b76d" fill-opacity="0.76" fill-rule="nonzero" group-id="2,49,69" node-id="708" stroke="none" target-height="65.384" target-width="66.022" target-x="133.476" target-y="143.743"></path><path d="M 157.19 179.70 C 157.19 173.87 162.06 169.13 168.07 169.13 C 170.40 169.13 172.55 169.85 174.33 171.07 C 172.49 167.76 168.89 165.51 164.76 165.51 C 158.75 165.51 153.88 170.25 153.88 176.08 C 153.88 179.65 155.71 182.81 158.50 184.72 C 157.67 183.23 157.19 181.52 157.19 179.70 Z" fill="#8b5c29" fill-opacity="0.15" fill-rule="nonzero" group-id="2,49,70" node-id="713" stroke="none" target-height="19.205002" target-width="20.447006" target-x="153.881" target-y="165.515"></path><path d="M 165.18 187.36 C 159.20 187.36 154.33 182.49 154.33 176.50 C 154.33 173.61 155.45 170.88 157.50 168.83 C 159.55 166.78 162.28 165.65 165.18 165.65 C 168.08 165.65 170.80 166.78 172.85 168.83 C 174.90 170.88 176.03 173.60 176.03 176.50 L 176.03 176.50 C 176.03 177.92 177.18 179.07 178.60 179.07 C 180.01 179.07 181.16 177.92 181.16 176.50 L 181.16 176.50 C 181.16 172.23 179.50 168.22 176.48 165.20 C 173.46 162.18 169.45 160.52 165.18 160.52 C 160.91 160.52 156.89 162.18 153.88 165.20 C 150.86 168.22 149.19 172.23 149.19 176.50 C 149.19 185.32 156.36 192.48 165.18 192.48 L 165.18 192.48 C 166.59 192.48 167.74 191.34 167.74 189.92 C 167.75 188.51 166.59 187.36 165.18 187.36 L 165.18 187.36 Z" fill="#6e6e96" fill-rule="nonzero" group-id="2,49,71" node-id="718" stroke="none" target-height="31.962997" target-width="31.965012" target-x="149.193" target-y="160.519"></path><path d="M 172.84 196.76 C 172.16 196.76 171.55 196.30 171.38 195.61 C 171.19 194.81 171.69 194.00 172.49 193.80 C 180.12 191.95 183.61 183.39 183.65 183.30 C 183.95 182.53 184.83 182.16 185.59 182.47 C 186.37 182.77 186.74 183.64 186.43 184.41 C 186.27 184.82 182.32 194.51 173.19 196.72 C 173.08 196.75 172.96 196.76 172.84 196.76 Z" fill="#ffffff" fill-opacity="0.73" fill-rule="nonzero" group-id="2,49,72" node-id="723" stroke="none" target-height="14.598999" target-width="15.549011" target-x="171.191" target-y="182.16"></path><path d="M 154.01 211.27 C 154.49 211.51 165.93 217.23 179.85 211.33 L 178.22 207.48 C 166.08 212.62 156.02 207.59 155.92 207.54 L 154.01 211.27 Z" fill="#6e6e96" fill-opacity="0.2" fill-rule="nonzero" group-id="2,49,73" node-id="728" stroke="none" target-height="9.751999" target-width="25.839996" target-x="154.013" target-y="207.48"></path><path d="M 166.49 210.63 C 147.46 210.63 131.98 195.15 131.98 176.12 C 131.98 157.09 147.46 141.61 166.49 141.61 C 166.49 141.61 166.49 141.61 166.49 141.61 C 175.71 141.61 184.37 145.20 190.89 151.72 C 197.41 158.24 201.00 166.90 201.00 176.12 C 201.00 195.15 185.52 210.63 166.49 210.63 Z M 166.49 144.61 C 166.49 144.61 166.49 144.61 166.49 144.61 C 149.11 144.61 134.98 158.75 134.98 176.12 C 134.98 193.50 149.11 207.63 166.49 207.63 C 183.86 207.63 198.00 193.50 198.00 176.12 C 198.00 167.71 194.72 159.79 188.77 153.84 C 182.82 147.89 174.91 144.61 166.49 144.61 Z" fill="#6e6e96" fill-rule="nonzero" group-id="2,49" node-id="731" stroke="none" target-height="69.01599" target-width="69.020996" target-x="131.977" target-y="141.613"></path><path d="M 149.08 63.96 L 125.63 63.96 C 124.25 63.96 123.13 62.84 123.13 61.46 C 123.13 60.08 124.25 58.96 125.63 58.96 L 149.08 58.96 C 150.46 58.96 151.58 60.08 151.58 61.46 C 151.58 62.84 150.46 63.96 149.08 63.96 Z" fill="#6e6e96" fill-opacity="0.56" fill-rule="nonzero" group-id="2,50" node-id="736" stroke="none" target-height="5" target-width="28.450996" target-x="123.126" target-y="58.959"></path><path d="M 154.49 78.84 L 94.96 78.84 C 94.13 78.84 93.46 78.17 93.46 77.34 C 93.46 76.52 94.13 75.84 94.96 75.84 L 154.49 75.84 C 155.32 75.84 155.99 76.52 155.99 77.34 C 155.99 78.17 155.32 78.84 154.49 78.84 Z" fill="#6e6e96" fill-opacity="0.56" fill-rule="nonzero" group-id="2,50" node-id="738" stroke="none" target-height="3" target-width="62.529" target-x="93.46" target-y="75.845"></path><path d="M 180.65 78.84 L 167.12 78.84 C 166.29 78.84 165.62 78.17 165.62 77.34 C 165.62 76.52 166.29 75.84 167.12 75.84 L 180.65 75.84 C 181.47 75.84 182.15 76.52 182.15 77.34 C 182.15 78.17 181.47 78.84 180.65 78.84 Z" fill="#6e6e96" fill-opacity="0.56" fill-rule="nonzero" group-id="2,50" node-id="740" stroke="none" target-height="3" target-width="16.528992" target-x="165.617" target-y="75.845"></path><path d="M 143.66 86.96 L 94.96 86.96 C 94.13 86.96 93.46 86.29 93.46 85.46 C 93.46 84.63 94.13 83.96 94.96 83.96 L 143.66 83.96 C 144.49 83.96 145.16 84.63 145.16 85.46 C 145.16 86.29 144.49 86.96 143.66 86.96 Z" fill="#6e6e96" fill-opacity="0.56" fill-rule="nonzero" group-id="2,50" node-id="742" stroke="none" target-height="3" target-width="51.704994" target-x="93.46" target-y="83.963"></path><path d="M 180.65 86.96 L 149.98 86.96 C 149.15 86.96 148.48 86.29 148.48 85.46 C 148.48 84.63 149.15 83.96 149.98 83.96 L 180.65 83.96 C 181.47 83.96 182.15 84.63 182.15 85.46 C 182.15 86.29 181.47 86.96 180.65 86.96 Z" fill="#6e6e96" fill-opacity="0.56" fill-rule="nonzero" group-id="2,50" node-id="744" stroke="none" target-height="3" target-width="33.666992" target-x="148.479" target-y="83.963"></path><path d="M 117.96 96.88 L 94.96 96.88 C 94.13 96.88 93.46 96.21 93.46 95.38 C 93.46 94.56 94.13 93.88 94.96 93.88 L 117.96 93.88 C 118.79 93.88 119.46 94.56 119.46 95.38 C 119.46 96.21 118.79 96.88 117.96 96.88 Z" fill="#6e6e96" fill-opacity="0.56" fill-rule="nonzero" group-id="2,50" node-id="746" stroke="none" target-height="3" target-width="26" target-x="93.46" target-y="93.884"></path><path d="M 140.06 96.88 L 126.53 96.88 C 125.70 96.88 125.03 96.21 125.03 95.38 C 125.03 94.56 125.70 93.88 126.53 93.88 L 140.06 93.88 C 140.89 93.88 141.56 94.56 141.56 95.38 C 141.56 96.21 140.89 96.88 140.06 96.88 Z" fill="#6e6e96" fill-opacity="0.56" fill-rule="nonzero" group-id="2,50" node-id="748" stroke="none" target-height="3" target-width="16.529" target-x="125.029" target-y="93.884"></path><path d="M 180.65 96.88 L 146.37 96.88 C 145.54 96.88 144.87 96.21 144.87 95.38 C 144.87 94.56 145.54 93.88 146.37 93.88 L 180.65 93.88 C 181.47 93.88 182.15 94.56 182.15 95.38 C 182.15 96.21 181.47 96.88 180.65 96.88 Z" fill="#6e6e96" fill-opacity="0.56" fill-rule="nonzero" group-id="2,50" node-id="750" stroke="none" target-height="3" target-width="37.274002" target-x="144.872" target-y="93.884"></path><path d="M 131.49 106.81 L 94.96 106.81 C 94.13 106.81 93.46 106.14 93.46 105.31 C 93.46 104.48 94.13 103.81 94.96 103.81 L 131.49 103.81 C 132.32 103.81 132.99 104.48 132.99 105.31 C 132.99 106.14 132.32 106.81 131.49 106.81 Z" fill="#6e6e96" fill-opacity="0.56" fill-rule="nonzero" group-id="2,50" node-id="752" stroke="none" target-height="3" target-width="39.530006" target-x="93.46" target-y="103.806"></path><path d="M 145.92 106.81 L 141.41 106.81 C 140.58 106.81 139.91 106.14 139.91 105.31 C 139.91 104.48 140.58 103.81 141.41 103.81 L 145.92 103.81 C 146.75 103.81 147.42 104.48 147.42 105.31 C 147.42 106.14 146.75 106.81 145.92 106.81 Z" fill="#6e6e96" fill-opacity="0.56" fill-rule="nonzero" group-id="2,50" node-id="754" stroke="none" target-height="3" target-width="7.51001" target-x="139.911" target-y="103.806"></path><path d="M 180.65 106.81 L 154.94 106.81 C 154.11 106.81 153.44 106.14 153.44 105.31 C 153.44 104.48 154.11 103.81 154.94 103.81 L 180.65 103.81 C 181.47 103.81 182.15 104.48 182.15 105.31 C 182.15 106.14 181.47 106.81 180.65 106.81 Z" fill="#6e6e96" fill-opacity="0.56" fill-rule="nonzero" group-id="2,50" node-id="756" stroke="none" target-height="3" target-width="28.705994" target-x="153.44" target-y="103.806"></path><path d="M 96.51 150.33 C 96.17 150.33 95.83 150.22 95.56 149.98 C 94.92 149.45 94.83 148.51 95.36 147.87 C 99.90 142.40 108.08 133.48 111.82 135.20 C 114.13 136.27 113.53 139.81 113.32 140.97 C 112.54 145.51 112.94 146.87 113.10 147.19 C 114.22 147.04 117.11 144.15 118.22 143.04 C 118.82 142.44 120.61 140.65 122.48 141.43 C 123.28 141.76 123.74 142.43 124.01 143.12 L 129.75 140.69 C 130.51 140.36 131.39 140.72 131.72 141.48 C 132.04 142.24 131.68 143.12 130.92 143.45 L 123.48 146.60 C 123.02 146.80 122.49 146.75 122.07 146.47 C 121.65 146.19 121.39 145.72 121.39 145.22 C 121.39 144.95 121.34 144.62 121.28 144.38 C 121.08 144.50 120.77 144.73 120.35 145.15 C 117.50 148.00 114.28 151.23 111.70 149.89 C 109.80 148.91 109.40 146.08 110.37 140.46 C 110.63 138.91 110.54 138.22 110.47 137.95 C 108.70 138.15 102.86 143.53 97.67 149.79 C 97.37 150.15 96.94 150.33 96.51 150.33 Z" fill="#6e6e96" fill-opacity="0.57" fill-rule="nonzero" group-id="2,51" node-id="761" stroke="none" target-height="17.742996" target-width="37.209" target-x="94.83" target-y="133.483"></path><path d="M 100.97 160.62 L 96.51 160.62 C 95.68 160.62 95.01 159.95 95.01 159.12 C 95.01 158.29 95.68 157.62 96.51 157.62 L 100.97 157.62 C 101.80 157.62 102.47 158.29 102.47 159.12 C 102.47 159.95 101.80 160.62 100.97 160.62 Z" fill="#6e6e96" fill-opacity="0.31" fill-rule="nonzero" group-id="2,52" node-id="766" stroke="none" target-height="3" target-width="7.459999" target-x="95.013" target-y="157.622"></path><path d="M 119.61 160.62 L 107.59 160.62 C 106.76 160.62 106.09 159.95 106.09 159.12 C 106.09 158.29 106.76 157.62 107.59 157.62 L 119.61 157.62 C 120.44 157.62 121.11 158.29 121.11 159.12 C 121.11 159.95 120.44 160.62 119.61 160.62 Z" fill="#6e6e96" fill-opacity="0.31" fill-rule="nonzero" group-id="2,53" node-id="771" stroke="none" target-height="3" target-width="15.026001" target-x="106.089" target-y="157.622"></path><path d="M 130.44 160.62 L 125.63 160.62 C 124.80 160.62 124.13 159.95 124.13 159.12 C 124.13 158.29 124.80 157.62 125.63 157.62 L 130.44 157.62 C 131.26 157.62 131.94 158.29 131.94 159.12 C 131.94 159.95 131.26 160.62 130.44 160.62 Z" fill="#6e6e96" fill-opacity="0.31" fill-rule="nonzero" group-id="2,54" node-id="776" stroke="none" target-height="3" target-width="7.810997" target-x="124.126" target-y="157.622"></path><path d="M 143.21 116.28 L 94.96 116.28 C 94.13 116.28 93.46 115.61 93.46 114.78 C 93.46 113.95 94.13 113.28 94.96 113.28 L 143.21 113.28 C 144.04 113.28 144.71 113.95 144.71 114.78 C 144.71 115.61 144.04 116.28 143.21 116.28 Z" fill="#6e6e96" fill-opacity="0.56" fill-rule="nonzero" group-id="2,55" node-id="781" stroke="none" target-height="3" target-width="51.254005" target-x="93.46" target-y="113.276"></path></g></svg>